<svg
   xmlns:dc="http://purl.org/dc/elements/1.1/"
   xmlns:cc="http://creativecommons.org/ns#"
   xmlns:rdf="http://www.w3.org/1999/02/22-rdf-syntax-ns#"
   xmlns:svg="http://www.w3.org/2000/svg"
   xmlns="http://www.w3.org/2000/svg"
   xmlns:sodipodi="http://sodipodi.sourceforge.net/DTD/sodipodi-0.dtd"
   xmlns:inkscape="http://www.inkscape.org/namespaces/inkscape"
   version="1.1"
   id="svg2"
   xml:space="preserve"
   width="113.80666"
   height="93.089531"
   viewBox="0 0 113.80666 93.08953"
   sodipodi:docname="box.svg"
   inkscape:version="0.92.4 (5da689c313, 2019-01-14)"><metadata
     id="metadata8"><rdf:RDF><cc:Work
         rdf:about=""><dc:format>image/svg+xml</dc:format><dc:type
           rdf:resource="http://purl.org/dc/dcmitype/StillImage" /><dc:title></dc:title></cc:Work></rdf:RDF></metadata><defs
     id="defs6"><clipPath
       clipPathUnits="userSpaceOnUse"
       id="clipPath128"><path
         d="m 3031.49,471.078 c 0,0 80.83,73.973 115.15,62.059 34.32,-11.914 34.35,-55.887 33.7,-59.332 0,0 -19.27,41.058 -82.69,2.57 -28.44,-17.258 -67.32,-25.645 -67.32,-25.645 z"
         id="path126"
         inkscape:connector-curvature="0" /></clipPath><linearGradient
       x1="0"
       y1="0"
       x2="1"
       y2="0"
       gradientUnits="userSpaceOnUse"
       gradientTransform="matrix(-100.964,-20.5254,-20.5254,100.964,3169.43,506.582)"
       spreadMethod="pad"
       id="linearGradient140"><stop
         style="stop-opacity:1;stop-color:#f9df1b"
         offset="0"
         id="stop130" /><stop
         style="stop-opacity:1;stop-color:#f6b612"
         offset="0.470588"
         id="stop132" /><stop
         style="stop-opacity:1;stop-color:#f6b612"
         offset="0.470588"
         id="stop134" /><stop
         style="stop-opacity:1;stop-color:#f6a80f"
         offset="0.788235"
         id="stop136" /><stop
         style="stop-opacity:1;stop-color:#f6a80f"
         offset="1"
         id="stop138" /></linearGradient><clipPath
       clipPathUnits="userSpaceOnUse"
       id="clipPath154"><path
         d="m 3030.34,450.699 c 0,0 -42.01,8.403 -70.41,25.645 -43.27,26.273 -66.03,15.488 -76.06,6.019 -4.7,-4.453 -6.64,-8.59 -6.64,-8.59 -0.51,2.633 -0.57,28.465 14.23,46.024 4.82,5.644 11.16,10.473 19.5,13.355 34.3,11.914 115.12,-62.074 115.12,-62.074 z"
         id="path152"
         inkscape:connector-curvature="0" /></clipPath><linearGradient
       x1="0"
       y1="0"
       x2="1"
       y2="0"
       gradientUnits="userSpaceOnUse"
       gradientTransform="matrix(163.023,-46.6341,-46.6341,-163.023,2895.99,505.618)"
       spreadMethod="pad"
       id="linearGradient166"><stop
         style="stop-opacity:1;stop-color:#f9df1b"
         offset="0"
         id="stop156" /><stop
         style="stop-opacity:1;stop-color:#f6b612"
         offset="0.470588"
         id="stop158" /><stop
         style="stop-opacity:1;stop-color:#f6b612"
         offset="0.470588"
         id="stop160" /><stop
         style="stop-opacity:1;stop-color:#f6a80f"
         offset="0.788235"
         id="stop162" /><stop
         style="stop-opacity:1;stop-color:#f6a80f"
         offset="1"
         id="stop164" /></linearGradient></defs><sodipodi:namedview
     pagecolor="#ffffff"
     bordercolor="#666666"
     borderopacity="1"
     objecttolerance="10"
     gridtolerance="10"
     guidetolerance="10"
     inkscape:pageopacity="0"
     inkscape:pageshadow="2"
     inkscape:window-width="2560"
     inkscape:window-height="1016"
     id="namedview4"
     showgrid="false"
     inkscape:zoom="2.1798805"
     inkscape:cx="30.144724"
     inkscape:cy="-17.064172"
     inkscape:window-x="0"
     inkscape:window-y="27"
     inkscape:window-maximized="1"
     inkscape:current-layer="g12" /><g
     id="g10"
     inkscape:groupmode="layer"
     inkscape:label="ink_ext_XXXXXX"
     transform="matrix(1.3333333,0,0,-1.3333333,-75.672747,234.62847)"><g
       id="g12"
       transform="scale(0.1)"><path
         d="m 1054.0156,1061.5421 -338.56998,90.3635 -134.7,76.312 191.1,116.024 14.87,-8.586 v -119.785 l 108.69,-62.754 v -1.293 l 42.45,-26.9065 v 0.5938 l 3.61,-2.2852 v 3.3008 l 112.54998,-64.9844"
         style="fill:#a7a6a8;fill-opacity:1;fill-rule:nonzero;stroke:none;stroke-width:0.99999994"
         id="path18"
         inkscape:connector-curvature="0" /><path
         d="m 786.67562,1489.5816 267.33998,154.347 -367.07998,-171.957 2.71,-4.597 97.03,22.207"
         style="fill:#983d1d;fill-opacity:1;fill-rule:nonzero;stroke:none;stroke-width:0.99999994"
         id="path196"
         inkscape:connector-curvature="0" /><path
         d="m 1321.3556,1488.6166 -267.34,154.351 367.08,-170.996 v -6.183 l -99.74,22.828"
         style="fill:#d5aa55;fill-opacity:1;fill-rule:nonzero;stroke:none;stroke-width:0.99999994"
         id="path198"
         inkscape:connector-curvature="0" /><path
         d="m 1054.0156,1061.5421 -267.29998,154.3285 v 278.929 l 267.29998,-154.328 v -278.9295"
         style="fill:#b56234;fill-opacity:1;fill-rule:nonzero;stroke:none;stroke-width:0.99999994"
         id="path200"
         inkscape:connector-curvature="0" /><path
         d="m 786.71562,1494.7996 v -278.929 l 267.29998,-154.3285 -259.54998,158.7265 -7.75,274.531"
         style="fill:#a14c1e;fill-opacity:1;fill-rule:nonzero;stroke:none;stroke-width:0.99999994"
         id="path202"
         inkscape:connector-curvature="0" /><path
         d="m 899.00562,1150.1356 v 279.828 l 42.46,-24.511 v -282.2269 l -42.46,26.9099"
         style="fill:#983d1d;fill-opacity:1;fill-rule:nonzero;stroke:none;stroke-width:0.99999994"
         id="path204"
         inkscape:connector-curvature="0" /><path
         d="m 895.40562,1151.8236 v 279.828 l 42.45,-24.508 v -282.2265 l -42.45,26.9065"
         style="fill:#b19eab;fill-opacity:1;fill-rule:nonzero;stroke:none;stroke-width:0.99999994"
         id="path206"
         inkscape:connector-curvature="0" /><path
         d="m 1054.0156,1061.5421 267.31,154.3285 v 278.929 l -267.31,-154.328 v -278.9295"
         style="fill:#d5aa55;fill-opacity:1;fill-rule:nonzero;stroke:none;stroke-width:0.99999994"
         id="path208"
         inkscape:connector-curvature="0" /><path
         d="m 1054.0156,1061.5421 267.31,154.3285 v 4.793 l -267.31,-154.3285 v -4.793"
         style="fill:#b08238;fill-opacity:1;fill-rule:nonzero;stroke:none;stroke-width:0.99999994"
         id="path210"
         inkscape:connector-curvature="0" /><path
         d="m 1069.8656,1114.7023 76.14,44.0083 v 63.617 l -74.72,-39.957 -1.42,-4.051 v -63.6173"
         style="fill:#983d1d;fill-opacity:1;fill-rule:nonzero;stroke:none;stroke-width:0.99999994"
         id="path212"
         inkscape:connector-curvature="0" /><path
         d="m 1219.1056,1156.9996 v 278.828 l -45.79,-26.442 v -278.82 l 45.79,26.434"
         style="fill:#983d1d;fill-opacity:1;fill-rule:nonzero;stroke:none;stroke-width:0.99999994"
         id="path214"
         inkscape:connector-curvature="0" /><path
         d="m 1220.8456,1155.9606 v 280.906 l -45.79,-26.438 v -280.9021 l 45.79,26.4341"
         style="fill:#d8d7d5;fill-opacity:1;fill-rule:nonzero;stroke:none;stroke-width:0.99999994"
         id="path216"
         inkscape:connector-curvature="0" /><path
         d="m 810.78562,1378.6436 50.66,-29.285 v 78.207 l -50.66,29.285 z m 56.37,-39.172 -62.08,35.879 v 91.387 l 62.08,-35.879 v -91.387"
         style="fill:#88381c;fill-opacity:1;fill-rule:nonzero;stroke:none;stroke-width:0.99999994"
         id="path218"
         inkscape:connector-curvature="0" /><path
         d="m 824.29562,1384.0306 21.11,-12.188 v 25.047 l -21.11,12.188 v -25.047"
         style="fill:#88381c;fill-opacity:1;fill-rule:nonzero;stroke:none;stroke-width:0.99999994"
         id="path220"
         inkscape:connector-curvature="0" /><path
         d="m 813.99562,1414.8236 41.7,-24.074 -20.85,43.617 z"
         style="fill:#88381c;fill-opacity:1;fill-rule:nonzero;stroke:none;stroke-width:0.99999994"
         id="path222"
         inkscape:connector-curvature="0" /><path
         d="m 1072.8356,1181.1636 76.14,44.007 -1.55,1.207 -76.14,-44.007 1.55,-1.207"
         style="fill:#ffffff;fill-opacity:1;fill-rule:nonzero;stroke:none;stroke-width:0.99999994"
         id="path224"
         inkscape:connector-curvature="0" /><path
         d="m 1072.8356,1117.546 v 63.6176 l -1.55,1.207 v -63.6175 l 1.55,-1.2071"
         style="fill:#868787;fill-opacity:1;fill-rule:nonzero;stroke:none;stroke-width:0.99999994"
         id="path226"
         inkscape:connector-curvature="0" /><path
         d="m 1072.8356,1117.546 76.14,44.0076 v 63.617 l -76.14,-44.007 v -63.6176"
         style="fill:#d8d7d5;fill-opacity:1;fill-rule:nonzero;stroke:none;stroke-width:0.99999994"
         id="path228"
         inkscape:connector-curvature="0" /><path
         d="m 1077.0956,1172.5026 67.62,39.086 v 4.036 l -67.62,-39.086 v -4.036"
         style="fill:#68696b;fill-opacity:1;fill-rule:nonzero;stroke:none;stroke-width:0.99999994"
         id="path230"
         inkscape:connector-curvature="0" /><path
         d="m 1105.0756,1170.8856 39.64,22.84 v 4.035 l -39.64,-22.84 v -4.035"
         style="fill:#898b8b;fill-opacity:1;fill-rule:nonzero;stroke:none;stroke-width:0.99999994"
         id="path232"
         inkscape:connector-curvature="0" /><path
         d="m 1077.3556,1128.0539 20.66,11.9335 v 34.2192 l -20.66,-11.934 v -34.2187"
         style="fill:#898b8b;fill-opacity:1;fill-rule:nonzero;stroke:none;stroke-width:0.99999994"
         id="path234"
         inkscape:connector-curvature="0" /><path
         d="m 1105.0756,1162.1246 39.64,22.839 v 4.036 l -39.64,-22.84 v -4.035"
         style="fill:#898b8b;fill-opacity:1;fill-rule:nonzero;stroke:none;stroke-width:0.99999994"
         id="path236"
         inkscape:connector-curvature="0" /><path
         d="m 1105.0756,1153.3626 39.64,22.84 v 4.035 l -39.64,-22.844 v -4.031"
         style="fill:#898b8b;fill-opacity:1;fill-rule:nonzero;stroke:none;stroke-width:0.99999994"
         id="path238"
         inkscape:connector-curvature="0" /><path
         d="m 1105.0756,1144.5968 39.64,22.8438 v 4.031 l -39.64,-22.8396 v -4.0352"
         style="fill:#898b8b;fill-opacity:1;fill-rule:nonzero;stroke:none;stroke-width:0.99999994"
         id="path240"
         inkscape:connector-curvature="0" /><path
         d="m 786.67562,1494.7996 267.33998,154.348 -99.72998,-22.824 -267.35,-154.352 99.74,22.828"
         style="fill:#d5aa55;fill-opacity:1;fill-rule:nonzero;stroke:none;stroke-width:0.99999994"
         id="path242"
         inkscape:connector-curvature="0" /><path
         d="m 1321.3556,1494.7996 -267.34,154.348 99.74,-22.824 267.34,-154.352 -99.74,22.828"
         style="fill:#e5c16c;fill-opacity:1;fill-rule:nonzero;stroke:none;stroke-width:0.99999994"
         id="path244"
         inkscape:connector-curvature="0" /><path
         d="m 1054.0156,1340.4486 -267.33998,154.351 267.33998,154.348 267.34,-154.348 -267.34,-154.351"
         style="fill:#edda80;fill-opacity:1;fill-rule:nonzero;stroke:none;stroke-width:0.99999994"
         id="path246"
         inkscape:connector-curvature="0" /><path
         d="m 1298.5256,1494.8076 -226.05,-130.515 -18.48,-10.692 -18.48,10.692 -226.04998,130.515 244.52998,141.149 244.53,-141.149"
         style="fill:#9b4b31;fill-opacity:1;fill-rule:nonzero;stroke:none;stroke-width:0.99999994"
         id="path248"
         inkscape:connector-curvature="0" /><path
         d="m 991.67562,1217.3196 -267.34,154.348 -2.42,5.293 332.09998,-36.489 v -8.91 l -62.33998,-114.242"
         style="fill:#d5aa55;fill-opacity:1;fill-rule:nonzero;stroke:none;stroke-width:0.99999994"
         id="path250"
         inkscape:connector-curvature="0" /><path
         d="m 989.25562,1222.6126 -267.34,154.348 64.76,117.839 267.33998,-154.351 -64.75998,-117.836"
         style="fill:#e2b759;fill-opacity:1;fill-rule:nonzero;stroke:none;stroke-width:0.99999994"
         id="path252"
         inkscape:connector-curvature="0" /><path
         d="m 1321.3256,1325.8116 v 13.738 l 0.023,0.012 0.01,-13.726 -0.03,-0.024"
         style="fill:#d58d7b;fill-opacity:1;fill-rule:nonzero;stroke:none;stroke-width:0.99999994"
         id="path254"
         inkscape:connector-curvature="0" /><path
         d="m 1105.0756,1203.7726 -51.06,94.445 v 33.344 l 4.63,0.469 60.13,-109.418 54.54,31.488 v -11.816 l -68.24,-38.512 m 115.77,65.336 v 12.43 l 100.48,58.011 v -13.738 l -100.48,-56.703"
         style="fill:#b45c2c;fill-opacity:1;fill-rule:nonzero;stroke:none;stroke-width:0.99999994"
         id="path256"
         inkscape:connector-curvature="0" /><path
         d="m 1173.3156,1242.2846 v 11.816 l 1.74,1 v -11.836 l -1.74,-0.98"
         style="fill:#7f251a;fill-opacity:1;fill-rule:nonzero;stroke:none;stroke-width:0.99999994"
         id="path258"
         inkscape:connector-curvature="0" /><path
         d="m 1175.0556,1243.2646 v 11.836 l 45.79,26.438 v -12.43 l -45.79,-25.844"
         style="fill:#b17567;fill-opacity:1;fill-rule:nonzero;stroke:none;stroke-width:0.99999994"
         id="path260"
         inkscape:connector-curvature="0" /><path
         d="m 1115.8056,1219.4756 267.34,154.352 2.97,3.133 -332.1,-36.489 v -8.91 l 61.79,-112.086"
         style="fill:#b56234;fill-opacity:1;fill-rule:nonzero;stroke:none;stroke-width:0.99999994"
         id="path262"
         inkscape:connector-curvature="0" /><path
         d="m 1118.7756,1222.6126 267.34,154.348 -64.76,117.839 -267.34,-154.351 64.76,-117.836"
         style="fill:#fae77f;fill-opacity:1;fill-rule:nonzero;stroke:none;stroke-width:0.99999994"
         id="path264"
         inkscape:connector-curvature="0" /><path
         d="m 989.25562,1222.6126 -267.34,154.348 2.42,-5.293 267.34,-154.348 -2.42,5.293"
         style="fill:#983d1d;fill-opacity:1;fill-rule:nonzero;stroke:none;stroke-width:0.99999994"
         id="path266"
         inkscape:connector-curvature="0" /><path
         d="m 1054.0156,1635.9796 v -282.359 l -244.52998,141.179 244.52998,141.18"
         style="fill:#ce9853;fill-opacity:1;fill-rule:nonzero;stroke:none;stroke-width:0.99999994"
         id="path268"
         inkscape:connector-curvature="0" /><path
         d="m 880.71562,1535.9246 v 0.016 l 13.92,8.031 v -0.01 l -13.92,-8.039"
         style="fill:#6c2e23;fill-opacity:1;fill-rule:nonzero;stroke:none;stroke-width:0.99999994"
         id="path270"
         inkscape:connector-curvature="0" /><path
         d="m 962.16562,1406.6516 -81.45,47.023 v 82.25 l 13.92,8.039 v -81.597 l 82.41,-47.578 -14.88,-8.137"
         style="fill:#8f5839;fill-opacity:1;fill-rule:nonzero;stroke:none;stroke-width:0.99999994"
         id="path272"
         inkscape:connector-curvature="0" /><path
         d="m 1072.4756,1364.2926 -18.48,-10.692 -18.48,10.692 18.48,10.628 18.48,-10.628"
         style="fill:#b56234;fill-opacity:1;fill-rule:nonzero;stroke:none;stroke-width:0.99999994"
         id="path274"
         inkscape:connector-curvature="0" /><path
         d="m 1053.9956,1353.6006 -67.40998,38.942 48.92998,-28.25 18.48,-10.692 18.48,10.692 226.05,130.515 -244.53,-141.207"
         style="fill:#a68153;fill-opacity:1;fill-rule:nonzero;stroke:none;stroke-width:0.99999994"
         id="path276"
         inkscape:connector-curvature="0" /><path
         d="m 1072.4756,1364.2926 -18.46,10.617 v 81.941 l 244.51,37.957 -226.05,-130.515 m -36.96,0 v 0 l -48.92998,28.25 -24.04,13.886 72.97998,-42.133 h -0.01"
         style="fill:#6c2e23;fill-opacity:1;fill-rule:nonzero;stroke:none;stroke-width:0.99999994"
         id="path278"
         inkscape:connector-curvature="0" /><path
         d="m 1035.5256,1364.2956 -72.97998,42.133 -0.38003,0.223 14.89,8.137 72.98001,-42.141 -14.51,-8.352"
         style="fill:#8f5839;fill-opacity:1;fill-rule:nonzero;stroke:none;stroke-width:0.99999994"
         id="path280"
         inkscape:connector-curvature="0" /><path
         d="m 1053.9956,1353.6006 -18.48,10.692 h 0.01 l 14.51,8.352 3.98,-2.297 v 4.559 l 18.46,-10.617 -18.48,-10.692"
         style="fill:#7e3a25;fill-opacity:1;fill-rule:nonzero;stroke:none;stroke-width:0.99999994"
         id="path282"
         inkscape:connector-curvature="0" /><path
         d="m 1054.0156,1370.3506 -159.37998,92.016 v 205.332 l 159.37998,-92.016 v -205.332"
         style="fill:#c2c0be;fill-opacity:1;fill-rule:nonzero;stroke:none;stroke-width:0.99999994"
         id="path284"
         inkscape:connector-curvature="0" /><path
         d="m 1054.0156,1575.6826 -159.37998,92.016 159.37998,92.015 159.38,-92.015 -159.38,-92.016"
         style="fill:#fcfcfd;fill-opacity:1;fill-rule:nonzero;stroke:none;stroke-width:0.99999994"
         id="path286"
         inkscape:connector-curvature="0" /><path
         d="m 1054.0156,1370.3506 159.38,92.016 v 205.332 l -159.38,-92.016 v -205.332"
         style="fill:#e7e6e5;fill-opacity:1;fill-rule:nonzero;stroke:none;stroke-width:0.99999994"
         id="path288"
         inkscape:connector-curvature="0" /><path
         d="m 786.67562,1529.5536 89.03,51.407 -89.03,-51.407 v 0"
         style="fill:#b297a2;fill-opacity:1;fill-rule:nonzero;stroke:none;stroke-width:0.99999994"
         id="path290"
         inkscape:connector-curvature="0" /><path
         d="m 786.67562,1529.5536 89.03,51.407 18.93,10.925 v -34.754 l -24.16,-13.949 -83.8,-13.629"
         style="fill:#95643a;fill-opacity:1;fill-rule:nonzero;stroke:none;stroke-width:0.99999994"
         id="path292"
         inkscape:connector-curvature="0" /><path
         d="m 880.71562,1535.9406 -10.24,7.242 24.16,13.949 v -13.16 l -13.92,-8.031"
         style="fill:#a68153;fill-opacity:1;fill-rule:nonzero;stroke:none;stroke-width:0.99999994"
         id="path294"
         inkscape:connector-curvature="0" /><path
         d="m 880.71562,1535.9406 v 0 l 13.92,8.031 v 0 l -13.92,-8.031"
         style="fill:#6c2e23;fill-opacity:1;fill-rule:nonzero;stroke:none;stroke-width:0.99999994"
         id="path296"
         inkscape:connector-curvature="0" /><path
         d="m 880.71562,1535.9406 v 0 l 13.92,8.031 v 0 l -13.92,-8.031"
         style="fill:#491e1a;fill-opacity:1;fill-rule:nonzero;stroke:none;stroke-width:0.99999994"
         id="path298"
         inkscape:connector-curvature="0" /><path
         d="m 894.63562,1543.9716 v 0 0 47.914 -47.914"
         style="fill:#84717a;fill-opacity:1;fill-rule:nonzero;stroke:none;stroke-width:0.99999994"
         id="path300"
         inkscape:connector-curvature="0" /><path
         d="m 567.54562,1325.8116 v 13.738 l 0.02,0.012 0.02,-13.726 -0.04,-0.024"
         style="fill:#d58d7b;fill-opacity:1;fill-rule:nonzero;stroke:none;stroke-width:0.99999994"
         id="path360"
         inkscape:connector-curvature="0" /></g></g></svg>